<?xml version="1.0" encoding="UTF-8"?>
<svg width="1202px" height="1678px" viewBox="0 0 1202 1678" version="1.1" xmlns="http://www.w3.org/2000/svg" xmlns:xlink="http://www.w3.org/1999/xlink">
    <!-- Generator: Sketch 49.3 (51167) - http://www.bohemiancoding.com/sketch -->
    <title>Artboard</title>
    <desc>Created with Sketch.</desc>
    <defs>
        <rect id="path-1" x="0.0520887372" y="0.079" width="1173.73555" height="1657.675"></rect>
    </defs>
    <g id="Artboard" stroke="none" stroke-width="1" fill="none" fill-rule="evenodd">
        <g id="3.-art-deco-wedding-card-5" transform="translate(0.000000, 1.000000)">
            <g id="Clipped" transform="translate(21.000000, 19.000000)">
                <mask id="mask-2" fill="white">
                    <use xlink:href="#path-1"></use>
                </mask>
                <g id="SVGID_1_"></g>
                <g id="Group" mask="url(#mask-2)">
                    <g transform="translate(-495.846416, -371.000000)">
                        <g transform="translate(486.831058, 363.000000)">
                            <g transform="translate(852.452218, 0.000000)">
                                <path d="M330.583174,4.853 L121.737389,188.205 L330.583174,4.853 Z" id="Shape" fill="#000000" fill-rule="nonzero"></path>
                                <rect id="Rectangle-path" fill="#DBB472" transform="translate(226.183195, 96.544237) rotate(138.669084) translate(-226.183195, -96.544237) " x="87.1282639" y="92.2447821" width="278.109862" height="8.59890958"></rect>
                                <polygon id="Shape" fill="#DBB472" points="150.777862 240.9 327.11727 2.306 334.046073 7.405 157.706666 245.998"></polygon>
                                <rect id="Rectangle-path" fill="#DBB472" transform="translate(257.981425, 159.242470) rotate(115.145315) translate(-257.981425, -159.242470) " x="87.0910233" y="154.943127" width="341.780804" height="8.59868635"></rect>
                                <rect id="Rectangle-path" fill="#DBB472" transform="translate(272.849015, 206.559228) rotate(105.950118) translate(-272.849015, -206.559228) " x="62.7173233" y="202.261734" width="420.263383" height="8.59498835"></rect>
                                <polygon id="Shape" fill="#DBB472" points="261.438381 554.686 325.407357 3.938 333.963933 4.933 269.991952 555.681"></polygon>
                                <rect id="Rectangle-path" fill="#DBB472" transform="translate(200.818647, 63.554784) rotate(155.600618) translate(-200.818647, -63.554784) " x="58.3565961" y="59.2567283" width="284.924102" height="8.59611218"></rect>
                                <polygon id="Shape" fill="#DBB472" points="0.890517065 59.927 329.814865 0.624 331.34948 9.083 2.42312799 68.387"></polygon>
                            </g>
                            <g>
                                <path d="M4.9283959,4.853 L213.773179,188.205 L4.9283959,4.853 Z" id="Shape" fill="#000000" fill-rule="nonzero"></path>
                                <rect id="Rectangle-path" fill="#DBB472" transform="translate(109.342573, 96.526903) rotate(41.330916) translate(-109.342573, -96.526903) " x="-29.7123579" y="92.2279485" width="278.109862" height="8.59790959"></rect>
                                <polygon id="Shape" fill="#DBB472" points="184.732706 240.9 8.39329863 2.306 1.46449488 7.405 177.803903 245.998"></polygon>
                                <polygon id="Shape" fill="#DBB472" points="154.053442 311.906 8.82603584 3.028 1.02975427 6.683 146.25716 315.563"></polygon>
                                <rect id="Rectangle-path" fill="#DBB472" transform="translate(62.672205, 206.547322) rotate(74.049882) translate(-62.672205, -206.547322) " x="-147.459486" y="202.249327" width="420.263383" height="8.59598835"></rect>
                                <polygon id="Shape" fill="#DBB472" points="74.0721877 554.686 10.1032116 3.938 1.54763652 4.933 65.518616 555.681"></polygon>
                                <rect id="Rectangle-path" fill="#DBB472" transform="translate(134.682126, 63.608117) rotate(24.399382) translate(-134.682126, -63.608117) " x="-7.77992528" y="59.3100605" width="284.924102" height="8.59611218"></rect>
                                <polygon id="Shape" fill="#DBB472" points="334.620051 59.927 5.69570307 0.624 4.16108874 9.083 333.08744 68.387"></polygon>
                            </g>
                            <g transform="translate(852.452218, 1095.000000)">
                                <path d="M330.583174,551.707 L121.738391,368.355 L330.583174,551.707 Z" id="Shape" fill="#000000" fill-rule="nonzero"></path>
                                <rect id="Rectangle-path" fill="#DBB472" transform="translate(226.194123, 460.055078) rotate(-138.669084) translate(-226.194123, -460.055078) " x="87.1386906" y="455.755623" width="278.110864" height="8.59890958"></rect>
                                <polygon id="Shape" fill="#DBB472" points="150.777862 315.66 327.11727 554.255 334.046073 549.155 157.706666 310.563"></polygon>
                                <rect id="Rectangle-path" fill="#DBB472" transform="translate(257.898095, 397.314786) rotate(-115.145315) translate(-257.898095, -397.314786) " x="87.0076933" y="393.015442" width="341.780804" height="8.59868635"></rect>
                                <rect id="Rectangle-path" fill="#DBB472" transform="translate(272.853362, 350.025184) rotate(-105.950118) translate(-272.853362, -350.025184) " x="62.7216707" y="345.72769" width="420.263383" height="8.59498835"></rect>
                                <polygon id="Shape" fill="#DBB472" points="261.438381 1.875 325.407357 552.621 333.963933 551.627 269.991952 0.879"></polygon>
                                <rect id="Rectangle-path" fill="#DBB472" transform="translate(200.741614, 492.939575) rotate(-155.600618) translate(-200.741614, -492.939575) " x="58.2800636" y="488.642019" width="284.9231" height="8.59511216"></rect>
                                <polygon id="Shape" fill="#DBB472" points="0.890517065 496.633 329.814865 555.937 331.34948 547.478 2.42312799 488.174"></polygon>
                            </g>
                            <g transform="translate(0.000000, 1095.000000)">
                                <path d="M4.9283959,551.707 L213.773179,368.355 L4.9283959,551.707 Z" id="Shape" fill="#000000" fill-rule="nonzero"></path>
                                <rect id="Rectangle-path" fill="#DBB472" transform="translate(109.355525, 459.994346) rotate(-41.330916) translate(-109.355525, -459.994346) " x="-29.699907" y="455.694891" width="278.110864" height="8.59890958"></rect>
                                <polygon id="Shape" fill="#DBB472" points="184.732706 315.66 8.39329863 554.255 1.46449488 549.155 177.803903 310.563"></polygon>
                                <rect id="Rectangle-path" fill="#DBB472" transform="translate(77.472608, 397.277032) rotate(-64.854685) translate(-77.472608, -397.277032) " x="-93.4177944" y="392.977688" width="341.780804" height="8.59868635"></rect>
                                <rect id="Rectangle-path" fill="#DBB472" transform="translate(62.675946, 349.987068) rotate(-74.049882) translate(-62.675946, -349.987068) " x="-147.455746" y="345.689573" width="420.263383" height="8.59498835"></rect>
                                <polygon id="Shape" fill="#DBB472" points="74.0721877 1.875 10.1032116 552.621 1.54763652 551.627 65.518616 0.879"></polygon>
                                <rect id="Rectangle-path" fill="#DBB472" transform="translate(134.603078, 493.016837) rotate(-24.399382) translate(-134.603078, -493.016837) " x="-7.85847189" y="488.719281" width="284.9231" height="8.59511216"></rect>
                                <polygon id="Shape" fill="#DBB472" points="334.620051 496.633 5.69570307 555.937 4.16108874 547.478 333.08744 488.174"></polygon>
                            </g>
                        </g>
                        <g transform="translate(0.000000, 117.000000)">
                            <rect id="Rectangle-path" stroke="#DBB472" stroke-width="9.9997041" fill="#0D0602" transform="translate(1082.778565, 1082.917828) rotate(135.000000) translate(-1082.778565, -1082.917828) " x="316.922202" y="318.366161" width="1531.71273" height="1529.10334"></rect>
                            <rect id="Rectangle-path" stroke="#DBB472" stroke-width="15.9997466" fill="#0D0602" transform="translate(1082.779066, 1082.917728) rotate(135.000000) translate(-1082.779066, -1082.917728) " x="377.024515" y="378.365485" width="1411.5091" height="1409.10449"></rect>
                            <rect id="Rectangle-path" stroke="#DBB472" stroke-width="23.9995698" fill="#0D0602" transform="translate(1082.779066, 1082.917728) rotate(135.000000) translate(-1082.779066, -1082.917728) " x="413.645551" y="414.924135" width="1338.26703" height="1335.98719"></rect>
                        </g>
                        <g transform="translate(268.459044, 888.000000)">
                            <rect id="Rectangle-path" stroke="#DBB472" stroke-width="9.9997041" transform="translate(227.434087, 166.387226) rotate(-135.000000) translate(-227.434087, -166.387226) " x="109.92102" y="49.0743507" width="235.026135" height="234.62575"></rect>
                            <rect id="Rectangle-path" stroke="#DBB472" stroke-width="9.9997041" transform="translate(227.433694, 455.470711) rotate(-135.000000) translate(-227.433694, -455.470711) " x="109.921127" y="338.157836" width="235.025133" height="234.62575"></rect>
                            <rect id="Rectangle-path" stroke="#DBB472" stroke-width="9.9997041" fill="#0F0903" transform="translate(227.432971, 303.555040) rotate(-135.000000) translate(-227.432971, -303.555040) " x="109.919904" y="186.242165" width="235.026135" height="234.62575"></rect>
                            <rect id="Rectangle-path" stroke="#DBB472" stroke-width="5.99974246" transform="translate(227.434767, 303.556940) rotate(-135.000000) translate(-227.434767, -303.556940) " x="128.874305" y="205.164384" width="197.120924" height="196.785113"></rect>
                            <rect id="Rectangle-path" stroke="#DBB472" stroke-width="9.9997041" transform="translate(227.434875, 303.555733) rotate(-135.000000) translate(-227.434875, -303.555733) " x="66.9525168" y="143.346769" width="320.964715" height="320.417927"></rect>
                            <rect id="Rectangle-path" stroke="#DBB472" stroke-width="5.99974246" transform="translate(227.435876, 303.557240) rotate(-135.000000) translate(-227.435876, -303.557240) " x="148.624369" y="224.879995" width="157.623014" height="157.354491"></rect>
                            <rect id="Rectangle-path" stroke="#DBB472" stroke-width="5.99974246" transform="translate(227.430567, 303.553340) rotate(-135.000000) translate(-227.430567, -303.553340) " x="187.931656" y="264.121718" width="78.9978226" height="78.8632437"></rect>
                        </g>
                        <g transform="translate(827.411263, 1855.000000)">
                            <rect id="Rectangle-path" stroke="#DBB472" stroke-width="9.9997041" transform="translate(255.348408, 255.898220) rotate(-135.000000) translate(-255.348408, -255.898220) " x="74.9097438" y="75.7669475" width="360.877328" height="360.262545"></rect>
                            <rect id="Rectangle-path" stroke="#DBB472" stroke-width="15.9997466" transform="translate(255.347005, 255.896520) rotate(-135.000000) translate(-255.347005, -255.896520) " x="104.008637" y="104.815969" width="302.676736" height="302.161102"></rect>
                            <rect id="Rectangle-path" stroke="#DBB472" stroke-width="9.9997041" transform="translate(255.347714, 255.896520) rotate(-135.000000) translate(-255.347714, -255.896520) " x="165.128382" y="165.830884" width="180.438664" height="180.131273"></rect>
                        </g>
                        <g transform="translate(827.411263, 0.000000)">
                            <g id="Rectangle-path" stroke="#DBB472">
                                <rect stroke-width="9.9997041" transform="translate(255.360163, 255.227199) rotate(-135.000000) translate(-255.360163, -255.227199) " x="74.9214992" y="75.0959264" width="360.877328" height="360.262545"></rect>
                                <rect stroke-width="15.9997466" transform="translate(255.359555, 255.226092) rotate(-135.000000) translate(-255.359555, -255.226092) " x="104.021187" y="104.145541" width="302.676736" height="302.161102"></rect>
                            </g>
                            <rect id="Rectangle-path" stroke="#DBB472" stroke-width="9.9997041" transform="translate(255.359487, 277.977467) rotate(-135.000000) translate(-255.359487, -277.977467) " x="165.140155" y="187.911831" width="180.438664" height="180.131273"></rect>
                        </g>
                        <g transform="translate(1448.469283, 888.000000)">
                            <rect id="Rectangle-path" stroke="#DBB472" stroke-width="9.9997041" transform="translate(227.537698, 166.388741) rotate(-45.000000) translate(-227.537698, -166.388741) " x="110.02463" y="49.0758657" width="235.026135" height="234.62575"></rect>
                            <rect id="Rectangle-path" stroke="#DBB472" stroke-width="9.9997041" transform="translate(227.535415, 455.461655) rotate(-45.000000) translate(-227.535415, -455.461655) " x="110.022849" y="338.14878" width="235.025133" height="234.62575"></rect>
                            <rect id="Rectangle-path" stroke="#DBB472" stroke-width="9.9997041" fill="#0F0903" transform="translate(227.536481, 303.555026) rotate(-45.000000) translate(-227.536481, -303.555026) " x="110.023414" y="186.242151" width="235.026135" height="234.62575"></rect>
                            <rect id="Rectangle-path" stroke="#DBB472" stroke-width="5.99974246" transform="translate(227.535780, 303.549419) rotate(-45.000000) translate(-227.535780, -303.549419) " x="128.975318" y="205.156863" width="197.120924" height="196.785113"></rect>
                            <rect id="Rectangle-path" stroke="#DBB472" stroke-width="9.9997041" transform="translate(227.535780, 303.550126) rotate(-45.000000) translate(-227.535780, -303.550126) " x="67.0539232" y="143.341663" width="320.963714" height="320.416927"></rect>
                            <rect id="Rectangle-path" stroke="#DBB472" stroke-width="5.99974246" transform="translate(227.535780, 303.550126) rotate(-45.000000) translate(-227.535780, -303.550126) " x="148.724273" y="224.872881" width="157.623014" height="157.354491"></rect>
                            <rect id="Rectangle-path" stroke="#DBB472" stroke-width="5.99974246" transform="translate(227.536782, 303.557526) rotate(-45.000000) translate(-227.536782, -303.557526) " x="188.03787" y="264.125905" width="78.9978226" height="78.8632437"></rect>
                        </g>
                    </g>
                </g>
            </g>
            <path d="M0,1677 L0,0 L1202,0 L1202,1677 L0,1677 Z M21.5929824,19.1292586 L21.5929824,1657.87074 L1180.40802,1657.87074 L1180.40802,19.1292586 L21.5929824,19.1292586 Z" id="Shape" fill="#DBB472"></path>
            <g id="Group" transform="translate(822.000000, 23.000000)" fill="#FBFAFA">
                <ellipse id="Oval" transform="translate(337.920920, 337.225207) rotate(-135.000000) translate(-337.920920, -337.225207) " cx="337.92092" cy="337.225207" rx="9.77768401" ry="9.76990631"></ellipse>
                <ellipse id="Oval" transform="translate(313.005645, 312.411387) rotate(-135.000000) translate(-313.005645, -312.411387) " cx="313.005645" cy="312.411387" rx="9.77868685" ry="9.7709063"></ellipse>
                <path d="M281.215909,280.674 C285.041778,276.859 291.240387,276.853 295.057231,280.659 C298.879088,284.47 298.870063,290.648 295.043191,294.463 C291.215316,298.28 285.019715,298.289 281.197858,294.479 C277.382017,290.672 277.388034,284.492 281.215909,280.674 Z" id="Shape"></path>
                <ellipse id="Oval" transform="translate(263.245374, 262.760182) rotate(-135.000000) translate(-263.245374, -262.760182) " cx="263.245374" cy="262.760182" rx="9.77868685" ry="9.76990631"></ellipse>
                <ellipse id="Oval" transform="translate(238.373214, 237.929454) rotate(-135.000000) translate(-238.373214, -237.929454) " cx="238.373214" cy="237.929454" rx="9.77768401" ry="9.7709063"></ellipse>
                <ellipse id="Oval" transform="translate(213.460138, 213.116027) rotate(-135.000000) translate(-213.460138, -213.116027) " cx="213.460138" cy="213.116027" rx="9.77768401" ry="9.76990631"></ellipse>
                <ellipse id="Oval" transform="translate(188.590085, 188.287256) rotate(-135.000000) translate(-188.590085, -188.287256) " cx="188.590085" cy="188.287256" rx="9.77768401" ry="9.76990631"></ellipse>
                <ellipse id="Oval" transform="translate(163.677611, 163.474129) rotate(-135.000000) translate(-163.677611, -163.474129) " cx="163.677611" cy="163.474129" rx="9.77768401" ry="9.76990631"></ellipse>
                <path d="M131.866621,131.748 C135.69249,127.933 141.8911,127.927 145.710952,131.736 C149.528798,135.543 149.520775,141.721 145.693903,145.536 C141.866028,149.353 135.669425,149.362 131.852581,145.555 C128.031726,141.746 128.037744,135.565 131.866621,131.748 Z" id="Shape"></path>
                <ellipse id="Oval" transform="translate(113.895284, 113.832631) rotate(-135.000000) translate(-113.895284, -113.832631) " cx="113.895284" cy="113.832631" rx="9.77768401" ry="9.76990631"></ellipse>
                <ellipse id="Oval" transform="translate(89.002566, 89.010303) rotate(-135.000000) translate(-89.002566, -89.010303) " cx="89.0025658" cy="89.0103034" rx="9.77868685" ry="9.76990631"></ellipse>
                <ellipse id="Oval" transform="translate(64.112061, 64.189355) rotate(-135.000000) translate(-64.112061, -64.189355) " cx="64.1120612" cy="64.1893545" rx="9.77968969" ry="9.76990631"></ellipse>
                <ellipse id="Oval" transform="translate(39.204394, 39.378106) rotate(-135.000000) translate(-39.204394, -39.378106) " cx="39.2043937" cy="39.3781056" rx="9.77768401" ry="9.7709063"></ellipse>
                <ellipse id="Oval" transform="translate(14.327521, 14.546578) rotate(-135.000000) translate(-14.327521, -14.546578) " cx="14.3275208" cy="14.546578" rx="9.77768401" ry="9.76990631"></ellipse>
            </g>
            <g id="Group" transform="translate(33.000000, 29.000000)" fill="#FBFAFA">
                <ellipse id="Oval" transform="translate(14.074240, 337.487502) rotate(-45.000000) translate(-14.074240, -337.487502) " cx="14.0742395" cy="337.487502" rx="9.77768401" ry="9.76990631"></ellipse>
                <ellipse id="Oval" transform="translate(38.963648, 312.673916) rotate(-45.000000) translate(-38.963648, -312.673916) " cx="38.9636481" cy="312.673916" rx="9.77868685" ry="9.7709063"></ellipse>
                <path d="M70.7790769,280.951 C66.9522051,277.136 60.7545983,277.13 56.937755,280.936 C53.1158974,284.747 53.1249231,290.925 56.9517949,294.74 C60.7796695,298.557 66.9752707,298.566 70.7971282,294.756 C74.6129687,290.949 74.6069516,284.769 70.7790769,280.951 Z" id="Shape"></path>
                <ellipse id="Oval" transform="translate(88.749077, 263.024920) rotate(-45.000000) translate(-88.749077, -263.024920) " cx="88.7490769" cy="263.02492" rx="9.77868685" ry="9.76990631"></ellipse>
                <ellipse id="Oval" transform="translate(113.644209, 238.194855) rotate(-45.000000) translate(-113.644209, -238.194855) " cx="113.644209" cy="238.194855" rx="9.77768401" ry="9.7709063"></ellipse>
                <path d="M145.454222,206.488 C141.628353,202.673 135.429744,202.667 131.6129,206.473 C127.791043,210.283 127.800068,216.461 131.62694,220.276 C135.454815,224.094 141.650416,224.102 145.472274,220.292 C149.288114,216.486 149.282097,210.306 145.454222,206.488 Z" id="Shape"></path>
                <ellipse id="Oval" transform="translate(163.423828, 188.572853) rotate(-45.000000) translate(-163.423828, -188.572853) " cx="163.423828" cy="188.572853" rx="9.77768401" ry="9.7709063"></ellipse>
                <ellipse id="Oval" transform="translate(188.316840, 163.741273) rotate(-45.000000) translate(-188.316840, -163.741273) " cx="188.31684" cy="163.741273" rx="9.77768401" ry="9.76990631"></ellipse>
                <path d="M220.128365,132.025 C216.302496,128.21 210.103886,128.204 206.284034,132.013 C202.466188,135.82 202.474211,141.998 206.301083,145.813 C210.128957,149.63 216.324558,149.639 220.142405,145.832 C223.963259,142.023 223.957242,135.843 220.128365,132.025 Z" id="Shape"></path>
                <path d="M245.019077,107.206 C241.193208,103.391 234.997607,103.382 231.176752,107.192 C227.358906,110.998 227.364923,117.179 231.190792,120.995 C235.01967,124.812 241.218279,124.818 245.035123,121.012 C248.855977,117.201 248.847954,111.023 245.019077,107.206 Z" id="Shape"></path>
                <ellipse id="Oval" transform="translate(262.992594, 89.279906) rotate(-45.000000) translate(-262.992594, -89.279906) " cx="262.992594" cy="89.2799059" rx="9.77868685" ry="9.76990631"></ellipse>
                <ellipse id="Oval" transform="translate(287.883908, 64.459048) rotate(-45.000000) translate(-287.883908, -64.459048) " cx="287.883908" cy="64.4590477" rx="9.77968969" ry="9.76990631"></ellipse>
                <ellipse id="Oval" transform="translate(312.777829, 39.648804) rotate(-45.000000) translate(-312.777829, -39.648804) " cx="312.777829" cy="39.6488037" rx="9.77768401" ry="9.76990631"></ellipse>
                <ellipse id="Oval" transform="translate(337.664029, 14.808631) rotate(-45.000000) translate(-337.664029, -14.808631) " cx="337.664029" cy="14.8086313" rx="9.77768401" ry="9.76990631"></ellipse>
            </g>
            <g id="Group" transform="translate(835.000000, 1316.000000)" fill="#FBFAFA">
                <ellipse id="Oval" transform="translate(331.898011, 13.847518) rotate(135.000000) translate(-331.898011, -13.847518) " cx="331.898011" cy="13.8475183" rx="9.59363553" ry="9.58590807"></ellipse>
                <path d="M300.671994,44.964 C304.425843,48.707 310.50742,48.713 314.253246,44.977 C317.999072,41.243 317.993055,35.179 314.239206,31.436 C310.482348,27.69 304.401774,27.685 300.655948,31.419 C296.909119,35.154 296.915136,41.218 300.671994,44.964 Z" id="Shape"></path>
                <path d="M276.249409,69.315 C280.003258,73.058 286.084835,73.064 289.829658,69.33 C293.579496,65.592 293.57047,59.53 289.81662,55.787 C286.060765,52.042 279.982197,52.034 276.233362,55.772 C272.487536,59.506 272.493554,65.57 276.249409,69.315 Z" id="Shape"></path>
                <path d="M251.828829,93.665 C255.582678,97.408 261.662249,97.416 265.410081,93.679 C269.155907,89.944 269.150893,83.88 265.397043,80.137 C261.640186,76.391 255.558609,76.386 251.812783,80.121 C248.064951,83.858 248.071971,89.92 251.828829,93.665 Z" id="Shape"></path>
                <ellipse id="Oval" transform="translate(234.203651, 111.291746) rotate(135.000000) translate(-234.203651, -111.291746) " cx="234.203651" cy="111.291746" rx="9.59263264" ry="9.58590807"></ellipse>
                <path d="M202.982655,142.369 C206.737507,146.112 212.818081,146.118 216.563907,142.384 C220.312742,138.646 220.304719,132.585 216.549867,128.842 C212.794012,125.096 206.715443,125.088 202.966609,128.826 C199.221786,132.561 199.2268,138.624 202.982655,142.369 Z" id="Shape"></path>
                <path d="M178.563078,166.719 C182.316928,170.462 188.395496,170.471 192.14433,166.733 C195.890157,162.999 195.884139,156.934 192.13029,153.192 C188.374435,149.446 182.292858,149.44 178.547032,153.175 C174.798197,156.912 174.807223,162.974 178.563078,166.719 Z" id="Shape"></path>
                <ellipse id="Oval" transform="translate(160.957256, 184.239479) rotate(135.000000) translate(-160.957256, -184.239479) " cx="160.957256" cy="184.239479" rx="9.59363553" ry="9.58590807"></ellipse>
                <path d="M129.717907,215.424 C133.471757,219.166 139.553333,219.172 143.301165,215.435 C147.046991,211.7 147.038968,205.639 143.284116,201.896 C139.527258,198.151 133.449693,198.142 129.703867,201.877 C125.956035,205.614 125.962052,211.678 129.717907,215.424 Z" id="Shape"></path>
                <ellipse id="Oval" transform="translate(112.116899, 232.941311) rotate(135.000000) translate(-112.116899, -232.941311) " cx="112.116899" cy="232.941311" rx="9.59363553" ry="9.58490808"></ellipse>
                <ellipse id="Oval" transform="translate(87.676863, 257.365512) rotate(135.000000) translate(-87.676863, -257.365512) " cx="87.6768627" cy="257.365512" rx="9.59363553" ry="9.58590807"></ellipse>
                <ellipse id="Oval" transform="translate(63.275238, 281.645328) rotate(135.000000) translate(-63.275238, -281.645328) " cx="63.2752378" cy="281.645328" rx="9.59564131" ry="9.58490808"></ellipse>
                <ellipse id="Oval" transform="translate(38.845030, 306.032144) rotate(135.000000) translate(-38.845030, -306.032144) " cx="38.8450303" cy="306.032144" rx="9.59363553" ry="9.58490808"></ellipse>
                <ellipse id="Oval" transform="translate(14.411413, 330.419746) rotate(135.000000) translate(-14.411413, -330.419746) " cx="14.4114129" cy="330.419746" rx="9.59363553" ry="9.58590807"></ellipse>
            </g>
            <g id="Group" transform="translate(27.000000, 1311.000000)" fill="#FBFAFA">
                <path d="M17.6054454,17.36 C13.7794828,21.175 7.58372989,21.183 3.76278161,17.374 C-0.055158046,13.567 -0.0501436782,7.386 3.77682184,3.571 C7.60479023,-0.247 13.8045546,-0.252 17.6224943,3.554 C21.4424397,7.365 21.4344167,13.543 17.6054454,17.36 Z" id="Shape"></path>
                <ellipse id="Oval" transform="translate(35.594073, 35.276374) rotate(45.000000) translate(-35.594073, -35.276374) " cx="35.5940732" cy="35.2763741" rx="9.77792347" ry="9.76990631"></ellipse>
                <path d="M67.3921006,67.004 C63.5661379,70.819 57.3673764,70.825 53.5504397,67.02 C49.7284885,63.209 49.7375144,57.031 53.5644799,53.215 C57.3924483,49.398 63.5882011,49.389 67.4101523,53.199 C71.2260862,57.006 71.220069,63.187 67.3921006,67.004 Z" id="Shape"></path>
                <ellipse id="Oval" transform="translate(85.377620, 84.917076) rotate(45.000000) translate(-85.377620, -84.917076) " cx="85.3776195" cy="84.9170763" rx="9.77892633" ry="9.76990631"></ellipse>
                <ellipse id="Oval" transform="translate(110.247688, 109.721142) rotate(45.000000) translate(-110.247688, -109.721142) " cx="110.247688" cy="109.721142" rx="9.77792347" ry="9.76990631"></ellipse>
                <ellipse id="Oval" transform="translate(135.115836, 134.527021) rotate(45.000000) translate(-135.115836, -134.527021) " cx="135.115836" cy="134.527021" rx="9.77792347" ry="9.76990631"></ellipse>
                <path d="M166.959394,166.286 C163.133431,170.101 156.937678,170.11 153.11673,166.301 C149.29879,162.493 149.304807,156.313 153.13077,152.498 C156.958739,148.68 163.1575,148.674 166.97544,152.481 C170.796388,156.291 170.787362,162.469 166.959394,166.286 Z" id="Shape"></path>
                <ellipse id="Oval" transform="translate(184.998466, 184.233723) rotate(45.000000) translate(-184.998466, -184.233723) " cx="184.998466" cy="184.233723" rx="9.77792347" ry="9.76990631"></ellipse>
                <path d="M216.746049,215.93 C212.920086,219.745 206.721325,219.751 202.900376,215.942 C199.082437,212.135 199.09046,205.958 202.917425,202.142 C206.745394,198.325 212.941147,198.316 216.759086,202.122 C220.580034,205.932 220.574017,212.112 216.746049,215.93 Z" id="Shape"></path>
                <path d="M241.636368,240.749 C237.810405,244.564 231.614652,244.573 227.792701,240.763 C223.974761,236.957 223.980779,230.776 227.807744,226.96 C231.635713,223.143 237.834474,223.137 241.652414,226.943 C245.473362,230.754 245.465339,236.932 241.636368,240.749 Z" id="Shape"></path>
                <ellipse id="Oval" transform="translate(259.597517, 258.645698) rotate(45.000000) translate(-259.597517, -258.645698) " cx="259.597517" cy="258.645698" rx="9.77892633" ry="9.76990631"></ellipse>
                <ellipse id="Oval" transform="translate(284.488538, 283.465242) rotate(45.000000) translate(-284.488538, -283.465242) " cx="284.488538" cy="283.465242" rx="9.7799292" ry="9.76990631"></ellipse>
                <path d="M316.313342,315.212 C312.487379,319.027 306.288618,319.033 302.470678,315.226 C298.653741,311.42 298.658756,305.239 302.485721,301.424 C306.31369,297.606 312.512451,297.601 316.330391,301.407 C320.14833,305.213 320.142313,311.395 316.313342,315.212 Z" id="Shape"></path>
                <ellipse id="Oval" transform="translate(334.329742, 333.140665) rotate(45.000000) translate(-334.329742, -333.140665) " cx="334.329742" cy="333.140665" rx="9.77792347" ry="9.76990631"></ellipse>
            </g>
        </g>
    </g>
</svg>